<svg xmlns="http://www.w3.org/2000/svg" viewBox="0 0 320 200">
  <rect width="320" height="200" fill="#060713"/>
  <rect x="20" y="14" width="280" height="172" rx="8" fill="#0d0d1a" stroke="rgba(6,182,212,0.2)" stroke-width="1"/>
  <g font-family="monospace" font-weight="800" text-anchor="middle">
    <rect x="30" y="30" width="30" height="12" rx="2" fill="#f43f5e"/>
    <rect x="64" y="30" width="30" height="12" rx="2" fill="#f43f5e"/>
    <rect x="98" y="30" width="30" height="12" rx="2" fill="#f43f5e"/>
    <rect x="132" y="30" width="30" height="12" rx="2" fill="#f43f5e"/>
    <rect x="166" y="30" width="30" height="12" rx="2" fill="#f43f5e"/>
    <rect x="200" y="30" width="30" height="12" rx="2" fill="#f43f5e"/>
    <rect x="234" y="30" width="30" height="12" rx="2" fill="#f43f5e"/>
    <rect x="268" y="30" width="30" height="12" rx="2" fill="#fb7185"/>
    <rect x="30" y="46" width="30" height="12" rx="2" fill="#f43f5e"/>
    <rect x="64" y="46" width="30" height="12" rx="2" fill="#fb7185"/>
    <rect x="98" y="46" width="30" height="12" rx="2" fill="#f43f5e"/>
    <rect x="132" y="46" width="30" height="12" rx="2" fill="#f43f5e"/>
    <rect x="166" y="46" width="30" height="12" rx="2" fill="#fb7185"/>
    <rect x="200" y="46" width="30" height="12" rx="2" fill="#f43f5e"/>
    <rect x="234" y="46" width="30" height="12" rx="2" fill="#f43f5e"/>
    <rect x="268" y="46" width="30" height="12" rx="2" fill="#f43f5e"/>
    <rect x="30" y="62" width="30" height="12" rx="2" fill="#fb7185"/>
    <rect x="64" y="62" width="30" height="12" rx="2" fill="#f43f5e"/>
    <rect x="98" y="62" width="30" height="12" rx="2" fill="#f43f5e"/>
    <rect x="132" y="62" width="30" height="12" rx="2" fill="#fb7185"/>
    <rect x="166" y="62" width="30" height="12" rx="2" fill="#f43f5e"/>
    <rect x="200" y="62" width="30" height="12" rx="2" fill="#fb7185"/>
    <rect x="234" y="62" width="30" height="12" rx="2" fill="#f43f5e"/>
    <rect x="268" y="62" width="30" height="12" rx="2" fill="#f43f5e"/>
    <rect x="30" y="80" width="30" height="12" rx="2" fill="#06b6d4"/>
    <rect x="64" y="80" width="30" height="12" rx="2" fill="#06b6d4"/>
    <rect x="98" y="80" width="30" height="12" rx="2" fill="#06b6d4"/>
    <rect x="132" y="80" width="30" height="12" rx="2" fill="#06b6d4"/>
    <rect x="166" y="80" width="30" height="12" rx="2" fill="#06b6d4"/>
    <rect x="200" y="80" width="30" height="12" rx="2" fill="#06b6d4"/>
    <rect x="234" y="80" width="30" height="12" rx="2" fill="#06b6d4"/>
    <rect x="268" y="80" width="30" height="12" rx="2" fill="#06b6d4"/>
    <rect x="30" y="96" width="30" height="12" rx="2" fill="#06b6d4"/>
    <rect x="64" y="96" width="30" height="12" rx="2" fill="#06b6d4"/>
    <rect x="98" y="96" width="30" height="12" rx="2" fill="#06b6d4"/>
    <rect x="132" y="96" width="30" height="12" rx="2" fill="#06b6d4"/>
    <rect x="166" y="96" width="30" height="12" rx="2" fill="#06b6d4"/>
    <rect x="200" y="96" width="30" height="12" rx="2" fill="#06b6d4"/>
    <rect x="234" y="96" width="30" height="12" rx="2" fill="#06b6d4"/>
    <rect x="268" y="96" width="30" height="12" rx="2" fill="#06b6d4"/>
  </g>
  <rect x="90" y="150" width="140" height="14" rx="6" fill="url(#pg)"/>
  <circle cx="160" cy="130" r="6" fill="#fff" opacity="0.9"/>
  <circle cx="160" cy="130" r="4" fill="#e2e8f0"/>
  <defs>
    <linearGradient id="pg" x1="0" y1="0" x2="0" y2="1">
      <stop offset="0%" stop-color="#06b6d4"/>
      <stop offset="100%" stop-color="#0e7490"/>
    </linearGradient>
  </defs>
</svg>
