<svg xmlns="http://www.w3.org/2000/svg" viewBox="0 0 320 200">
  <rect width="320" height="200" fill="#0a0a12"/>
  <rect x="40" y="20" width="240" height="160" rx="12" fill="rgba(30,41,59,0.5)"/>
  <rect x="40" y="20" width="240" height="160" rx="12" fill="none" stroke="rgba(255,255,255,0.06)" stroke-width="1"/>
  <text x="160" y="48" font-family="system-ui,Inter,sans-serif" font-size="16" font-weight="800" fill="#f59e0b" text-anchor="middle">Word Scramble</text>
  <g transform="translate(72 68)" font-family="system-ui,Inter,sans-serif" font-weight="800" text-anchor="middle">
    <g transform="translate(0 0)"><rect x="-14" y="-16" width="28" height="32" rx="6" fill="rgba(15,23,42,0.8)" stroke="rgba(255,255,255,0.06)" stroke-width="1"/><text y="7" font-size="16" fill="#f59e0b">R</text></g>
    <g transform="translate(30 0)"><rect x="-14" y="-16" width="28" height="32" rx="6" fill="rgba(15,23,42,0.8)" stroke="rgba(255,255,255,0.06)" stroke-width="1"/><text y="7" font-size="16" fill="#f59e0b">B</text></g>
    <g transform="translate(60 0)"><rect x="-14" y="-16" width="28" height="32" rx="6" fill="rgba(15,23,42,0.8)" stroke="rgba(255,255,255,0.06)" stroke-width="1"/><text y="7" font-size="16" fill="#f59e0b">S</text></g>
    <g transform="translate(90 0)"><rect x="-14" y="-16" width="28" height="32" rx="6" fill="rgba(15,23,42,0.8)" stroke="rgba(255,255,255,0.06)" stroke-width="1"/><text y="7" font-size="16" fill="#f59e0b">L</text></g>
    <g transform="translate(120 0)"><rect x="-14" y="-16" width="28" height="32" rx="6" fill="rgba(15,23,42,0.8)" stroke="rgba(255,255,255,0.06)" stroke-width="1"/><text y="7" font-size="16" fill="#f59e0b">C</text></g>
    <g transform="translate(150 0)"><rect x="-14" y="-16" width="28" height="32" rx="6" fill="rgba(15,23,42,0.8)" stroke="rgba(255,255,255,0.06)" stroke-width="1"/><text y="7" font-size="16" fill="#f59e0b">M</text></g>
  </g>
  <rect x="72" y="114" width="176" height="28" rx="6" fill="rgba(139,92,246,0.08)" stroke="rgba(139,92,246,0.12)" stroke-width="1"/>
  <text x="160" y="133" font-family="system-ui,Inter,sans-serif" font-size="10" fill="#c4b5fd" text-anchor="middle">The language that powers the web</text>
  <rect x="72" y="152" width="176" height="24" rx="6" fill="rgba(16,185,129,0.15)"/>
  <text x="160" y="168" font-family="system-ui,Inter,sans-serif" font-size="11" font-weight="700" fill="#10b981" text-anchor="middle">Type your answer...</text>
</svg>
